<svg aria-hidden="true" style="position: absolute; width: 0; height: 0; overflow: hidden;" version="1.1" xmlns="http://www.w3.org/2000/svg" xmlns:xlink="http://www.w3.org/1999/xlink">
<defs>
<symbol id="car1" viewBox="0 0 32 32">
<path d="M7.077 17.936c-1.618 0-2.931 1.312-2.931 2.929 0 1.62 1.313 2.93 2.931 2.93 1.619 0 2.931-1.312 2.931-2.93s-1.312-2.929-2.931-2.929zM7.077 22.519c-0.911 0-1.652-0.74-1.652-1.654 0-0.909 0.741-1.651 1.652-1.651s1.653 0.74 1.653 1.651c0 0.914-0.742 1.654-1.653 1.654zM25.622 17.936c-1.618 0-2.931 1.312-2.931 2.929 0 1.62 1.313 2.93 2.931 2.93 1.619 0 2.931-1.312 2.931-2.93s-1.313-2.929-2.931-2.929zM25.622 22.519c-0.91 0-1.652-0.74-1.652-1.654 0-0.909 0.741-1.651 1.652-1.651s1.653 0.74 1.653 1.651c-0.001 0.914-0.742 1.654-1.653 1.654zM30.934 17.936v-1.014c0-2.119-1.715-2.876-3.836-2.876h-4.566l-0.776-2.608c-0.679-2.296-2.811-3.232-4.303-3.232h-6.208c-0.948 0-1.388 0.322-1.591 0.846l-6.19 4.683c-0.010-0.948-0.78-1.715-1.732-1.715-0.955 0-1.731 0.774-1.731 1.731v3.85c0 0.957 0.776 1.731 1.731 1.731v1.532h2.238c0-1.765 1.432-3.197 3.197-3.197 1.766 0 3.199 1.432 3.199 3.197h12.007c0-1.765 1.431-3.197 3.199-3.197s3.197 1.432 3.197 3.197h3.232v-2.928l-1.066-0.001zM9.498 14.044h-4.326l4.317-3.268c0.004 0.215 0.008 0.434 0.008 0.659l0.001 2.608zM18.564 14.044h-7.467v-2.607c0-1.004-0.033-1.821 1.106-1.821h5.248c1.14 0 2.705 0.817 2.705 1.821l0.124 0.706-1.715 1.901z"></path>
</symbol>
<symbol id="car2" viewBox="0 0 32 32">
<path d="M7.077 17.936c-1.618 0-2.931 1.312-2.931 2.929 0 1.62 1.313 2.93 2.931 2.93 1.619 0 2.931-1.312 2.931-2.93s-1.312-2.929-2.931-2.929zM7.077 22.519c-0.911 0-1.652-0.74-1.652-1.654 0-0.909 0.741-1.651 1.652-1.651s1.653 0.74 1.653 1.651c0 0.914-0.742 1.654-1.653 1.654zM25.622 17.936c-1.618 0-2.931 1.312-2.931 2.929 0 1.62 1.313 2.93 2.931 2.93 1.619 0 2.931-1.312 2.931-2.93s-1.313-2.929-2.931-2.929zM25.622 22.519c-0.91 0-1.652-0.74-1.652-1.654 0-0.909 0.741-1.651 1.652-1.651s1.653 0.74 1.653 1.651c-0.001 0.914-0.742 1.654-1.653 1.654zM30.934 17.936v-1.014c0-2.119-1.715-2.876-3.836-2.876h-4.566l-0.776-2.608c-0.679-2.296-2.811-3.232-4.303-3.232h-6.208c-0.948 0-1.388 0.322-1.591 0.846l-6.19 4.683c-0.010-0.948-0.78-1.715-1.732-1.715-0.955 0-1.731 0.774-1.731 1.731v3.85c0 0.957 0.776 1.731 1.731 1.731v1.532h2.238c0-1.765 1.432-3.197 3.197-3.197 1.766 0 3.199 1.432 3.199 3.197h12.007c0-1.765 1.431-3.197 3.199-3.197s3.197 1.432 3.197 3.197h3.232v-2.928l-1.066-0.001zM9.498 14.044h-4.326l4.317-3.268c0.004 0.215 0.008 0.434 0.008 0.659l0.001 2.608zM18.564 14.044h-7.467v-2.607c0-1.004-0.033-1.821 1.106-1.821h5.248c1.14 0 2.705 0.817 2.705 1.821l0.124 0.706-1.715 1.901z"></path>
</symbol>
<symbol id="car3" viewBox="0 0 32 32">
<path stroke-linejoin="round" stroke-linecap="round" stroke-miterlimit="4" stroke-width="0.64" d="M3.76 18.619c0.114-0.932 0.139-1.878 0.228-2.806"></path>
<path stroke-linejoin="round" stroke-linecap="round" stroke-miterlimit="4" stroke-width="0.64" d="M4.413 15.381c3.131-1.755 14.698-7.763 15.325-0.866"></path>
<path stroke-linejoin="round" stroke-linecap="round" stroke-miterlimit="4" stroke-width="0.64" d="M6.032 15.649c3.584-0.753 22.894-4.468 21.514 3.186"></path>
<path stroke-linejoin="round" stroke-linecap="round" stroke-miterlimit="4" stroke-width="0.64" d="M25.782 19.59c0.847-0.077 1.644-0.416 2.482-0.54"></path>
<path stroke-linejoin="round" stroke-linecap="round" stroke-miterlimit="4" stroke-width="0.64" d="M21.465 18.212c0.402-0.339 0.658-1.041 1.221-1.165 2.034-0.447 3.839 2.439 1.702 3.496-1.876 0.928-3.518-1.102-2.181-2.59"></path>
<path stroke-linejoin="round" stroke-linecap="round" stroke-miterlimit="4" stroke-width="0.64" d="M6.361 18.153c2.451-4.094 5.909 1.513 2.361 2.551-1.482 0.434-3.090-1.167-2.018-2.375"></path>
<path stroke-linejoin="round" stroke-linecap="round" stroke-miterlimit="4" stroke-width="0.64" d="M20.71 19.125c-5.497 0.22-11.362-0.725-16.836-0.275"></path>
<path stroke-linejoin="round" stroke-linecap="round" stroke-miterlimit="4" stroke-width="0.64" d="M28.16 17.54c-0.017 0.615 0 1.239 0 1.835"></path>
</symbol>
<symbol id="car4" viewBox="0 0 32 32">
<path d="M6.594 6c-1.336 0-2.57 0.668-3.313 1.781l-2.781 4.156c-0.328 0.492-0.5 1.063-0.5 1.656v6.625c0 0.914 0.613 1.715 1.5 1.938l2.594 0.656c0.375 1.816 1.984 3.188 3.906 3.188 1.852 0 3.398-1.281 3.844-3h9.313c0.445 1.719 1.992 3 3.844 3s3.398-1.281 3.844-3h1.156c1.094 0 2-0.906 2-2v-3.656c0-1.832-1.254-3.434-3.031-3.875l-5.406-1.375-3.906-4.656c-0.762-0.91-1.875-1.438-3.063-1.438zM6.594 8h4.406v4h-8.125l2.063-3.094v-0.031c0.371-0.559 0.984-0.875 1.656-0.875zM13 8h3.594c0.594 0 1.152 0.262 1.531 0.719l2.75 3.281h-7.875zM2 14h20.875l5.625 1.406c0.895 0.223 1.5 1.016 1.5 1.938v3.656h-1.156c-0.445-1.719-1.992-3-3.844-3s-3.398 1.281-3.844 3h-9.313c-0.445-1.719-1.992-3-3.844-3-1.773 0-3.262 1.172-3.781 2.781l-2.219-0.563zM8 20c1.117 0 2 0.883 2 2s-0.883 2-2 2c-1.117 0-2-0.883-2-2s0.883-2 2-2zM25 20c1.117 0 2 0.883 2 2s-0.883 2-2 2c-1.117 0-2-0.883-2-2s0.883-2 2-2z"></path>
</symbol>
<symbol id="car5" viewBox="0 0 32 32">
<path d="M6.54 18.004c-0.711-0.001-1.363 0.291-1.827 0.757-0.466 0.465-0.758 1.117-0.757 1.828-0.001 0.71 0.291 1.362 0.757 1.827 0.465 0.466 1.116 0.758 1.827 0.757s1.363-0.291 1.827-0.757c0.466-0.465 0.757-1.117 0.757-1.827 0-0.711-0.291-1.363-0.757-1.828-0.465-0.466-1.117-0.758-1.827-0.757zM7.239 21.288c-0.183 0.181-0.422 0.289-0.699 0.29-0.278-0.001-0.516-0.109-0.699-0.29-0.182-0.183-0.29-0.423-0.29-0.7s0.108-0.517 0.29-0.7c0.183-0.182 0.421-0.29 0.699-0.29 0.277 0 0.516 0.108 0.699 0.29 0.182 0.183 0.29 0.422 0.29 0.7s-0.108 0.516-0.29 0.7z"></path>
<path d="M23.839 18.004c-0.711-0.001-1.363 0.291-1.827 0.757-0.466 0.465-0.758 1.117-0.757 1.828-0 0.71 0.291 1.362 0.757 1.827 0.465 0.466 1.116 0.758 1.827 0.757s1.363-0.291 1.827-0.757c0.466-0.465 0.757-1.117 0.757-1.827 0-0.711-0.291-1.363-0.757-1.828-0.465-0.466-1.117-0.758-1.827-0.757zM24.538 21.288c-0.183 0.181-0.422 0.289-0.699 0.29-0.278-0.001-0.516-0.109-0.699-0.29-0.182-0.183-0.29-0.423-0.29-0.7s0.108-0.517 0.29-0.7c0.183-0.182 0.421-0.29 0.699-0.29s0.516 0.108 0.699 0.29c0.182 0.183 0.29 0.422 0.29 0.7s-0.108 0.516-0.29 0.7z"></path>
<path d="M31.367 19.607h-4.365v1.899h4.365c0.349 0 0.633-0.284 0.633-0.633v-0.633c0-0.35-0.284-0.633-0.633-0.633z"></path>
<path d="M0 20.24v0.633c0 0.35 0.284 0.633 0.633 0.633h2.849v-1.899h-2.849c-0.349 0-0.633 0.284-0.633 0.633z"></path>
<path d="M31.381 19.061c0-0.418-0.097-0.83-0.284-1.204l-0.808-1.616c-0.375-0.751-1.079-1.282-1.903-1.44l-4.627-0.881c-0.458-0.088-0.872-0.335-1.165-0.698l-2.207-2.73c-0.852-1.053-2.134-1.665-3.488-1.665h-10.556c-1.606 0-3.090 0.859-3.89 2.252l-0.786 1.37c-0.78 1.359-1.191 2.898-1.191 4.466v2.25h3.186c0.155-0.313 0.357-0.603 0.606-0.851 0.597-0.598 1.425-0.942 2.272-0.942 0.852 0 1.681 0.344 2.278 0.943 0.598 0.597 0.942 1.427 0.941 2.275 0 0.052-0.005 0.105-0.008 0.157h10.88c-0.003-0.053-0.008-0.105-0.008-0.158-0-0.847 0.343-1.677 0.943-2.275 0.596-0.598 1.425-0.942 2.272-0.942 0.852 0 1.68 0.344 2.278 0.943 0.248 0.248 0.45 0.537 0.604 0.85h4.662v-0.103zM7.647 14.734h-4.008c-0.712 0-0.791-0.369-0.58-0.962l0.765-1.904c0.516-0.899 1.481-1.458 2.517-1.458h1.306v4.324zM13.156 16.527h-1.578c-0.191 0-0.345-0.165-0.345-0.369 0-0.204 0.154-0.37 0.345-0.37h1.578c0.19 0 0.345 0.165 0.345 0.37 0 0.203-0.154 0.369-0.345 0.369zM14.398 14.734h-5.801v-4.324h5.801v4.324zM21.005 14.734h-5.658v-4.324h1.55c0.881 0 1.704 0.393 2.258 1.077l2.207 2.73c0.155 0.192 0.155 0.517-0.357 0.517zM29.162 16.896h-2.079c-0.224 0-0.414-0.166-0.444-0.387l-0.101-0.748c-0.015-0.115 0.024-0.232 0.106-0.314s0.199-0.121 0.314-0.105l1.091 0.152c0 0 0.748 0.158 1.228 0.877 0.351 0.526-0.116 0.526-0.116 0.526z"></path>
</symbol>
<symbol id="car6" viewBox="0 0 32 32">
<path d="M11.629 10.75c-1.267 0-2.049 0.124-2.613 0.363s-0.887 0.597-1.203 0.977c-0.632 0.758-1.298 1.685-4.263 2.673l-0.056 0.019-0.042 0.042c-0.574 0.574-0.701 1.406-0.635 2.197s0.323 1.561 0.588 2.091l0.069 0.139h2.455c0.13 1.117 1.048 2 2.199 2s2.069-0.883 2.199-2h10.602c0.13 1.117 1.048 2 2.199 2s2.069-0.883 2.199-2h2.301c0.563 0 1.002-0.229 1.259-0.59s0.338-0.825 0.304-1.303c-0.068-0.956-0.588-2.009-1.424-2.565l-0.063-0.042h-5.010c-1.669-0.726-2.376-1.663-3.133-2.482-0.763-0.827-1.624-1.518-3.434-1.518zM11.629 11.25h4.5c1.69 0 2.329 0.559 3.066 1.357s1.535 1.851 3.335 2.622l0.048 0.021h4.948c0.642 0.455 1.111 1.366 1.166 2.143 0.028 0.397-0.047 0.746-0.213 0.979s-0.413 0.379-0.851 0.379h-2.75v0.25c0 0.969-0.781 1.75-1.75 1.75s-1.75-0.781-1.75-1.75v-0.25h-11.5v0.25c0 0.969-0.781 1.75-1.75 1.75s-1.75-0.781-1.75-1.75v-0.25h-2.565c-0.218-0.47-0.443-1.113-0.498-1.77-0.058-0.697 0.067-1.348 0.476-1.775 2.955-1.002 3.794-2.060 4.405-2.794 0.309-0.371 0.548-0.638 1.015-0.836s1.185-0.324 2.418-0.324z"></path>
<path d="M16.129 11.75v0.5c0.417 0 0.834 0.212 1.272 0.569s0.887 0.85 1.357 1.352c0.941 1.004 1.987 2.079 3.37 2.079v-0.5c-1.117 0-2.071-0.925-3.005-1.921-0.467-0.498-0.924-1.005-1.407-1.398s-1.005-0.681-1.588-0.681z"></path>
<path d="M8.129 17.5c-0.687 0-1.25 0.563-1.25 1.25s0.563 1.25 1.25 1.25c0.687 0 1.25-0.563 1.25-1.25s-0.563-1.25-1.25-1.25zM8.129 18c0.417 0 0.75 0.333 0.75 0.75s-0.333 0.75-0.75 0.75c-0.417 0-0.75-0.333-0.75-0.75s0.333-0.75 0.75-0.75z"></path>
<path d="M23.129 17.5c-0.687 0-1.25 0.563-1.25 1.25s0.563 1.25 1.25 1.25c0.687 0 1.25-0.563 1.25-1.25s-0.563-1.25-1.25-1.25zM23.129 18c0.417 0 0.75 0.333 0.75 0.75s-0.333 0.75-0.75 0.75c-0.417 0-0.75-0.333-0.75-0.75s0.333-0.75 0.75-0.75z"></path>
</symbol>
<symbol id="car7" viewBox="0 0 32 32">
<path d="M4.018 18.542c1.176 0 2.123 0.954 2.123 2.123 0 1.176-0.954 2.123-2.123 2.123-1.176 0-2.123-0.954-2.123-2.123 0-1.176 0.954-2.123 2.123-2.123zM26.879 11.162l4.592-2.153c0.013-0.005 0.027-0.009 0.043-0.009 0.045 0 0.084 0.027 0.101 0.067l0 0.001 0.377 0.897c0.019 0.046 0.005 0.101-0.037 0.131l-0.905 0.659v1.271h0.135c0.038 0 0.068 0.031 0.068 0.068v0.614c-0 0.038-0.031 0.068-0.068 0.068h-0.123v0.564c-0.111 0.063-0.214 0.134-0.306 0.216-0.19 0.168-0.464 0.459-0.397 0.726 0.090 0.359 0.666 0.518 0.907-0.153 0.049-0.137 0.058-0.179 0.149-0.303 0.035-0.048 0.071-0.091 0.11-0.13l-0 0c0.051-0.055 0.13-0.039 0.159 0.021 0.041 0.086-0.042 0.153-0.068 0.238-0.073 0.24 0.034 0.48-0.102 0.816-0.2 0.493-0.793 0.655-1.258 0.466-0.449-0.183-0.741-0.649-0.679-1.136 0.060-0.47 0.466-0.826 0.869-1.035v-0.29h-0.063c-0.038 0-0.068-0.031-0.068-0.068v-0.614c0-0.038 0.031-0.068 0.068-0.068h0.094v-0.855l-2.963 2.005c0.109-0.2 0.173-0.439 0.173-0.692 0-0.001 0-0.001 0-0.002v0c0-0.398-0.158-0.761-0.415-1.028l-0.020-0.021c-0.107-0.107-0.231-0.198-0.366-0.269l-0.008-0.004zM26.204 11.345c0.629 0 1.139 0.51 1.139 1.139s-0.51 1.138-1.139 1.138-1.138-0.51-1.138-1.138c0-0.629 0.51-1.139 1.138-1.139zM26.204 11.977c0 0 0 0 0 0 0.279 0 0.506 0.227 0.506 0.506 0 0 0 0 0 0v0c0 0.279-0.227 0.506-0.506 0.506-0 0-0 0-0 0v0c-0.279 0-0.506-0.227-0.506-0.506v0c0-0 0-0 0-0 0-0.279 0.227-0.506 0.506-0.506v0zM27.1 13.665v3.252h0.147c0.021 0 0.041 0.009 0.055 0.023l3.115 2.587c0.067 0.055 0.107 0.119 0.125 0.187 0.029 0.11-0.004 0.226-0.076 0.337-0.066 0.101-0.168 0.201-0.288 0.287-0.23 0.166-0.531 0.286-0.771 0.286h-3.646c-0.041-0-0.075-0.033-0.076-0.074v-0c-0.037-0.314-0.123-0.6-0.251-0.861l0.007 0.015c-0.137-0.28-0.31-0.521-0.516-0.727l0 0-0.008-0.008c-0.24-0.239-0.525-0.432-0.841-0.566l-0.017-0.007c-0.299-0.127-0.646-0.201-1.011-0.201-0.001 0-0.002 0-0.003 0h0c-0.001 0-0.002 0-0.003 0-0.366 0-0.714 0.074-1.030 0.208l0.017-0.007-0.003 0.001c-0.335 0.142-0.62 0.336-0.86 0.576l-0 0c-0.207 0.206-0.379 0.447-0.51 0.711l-0.007 0.016c-0.123 0.248-0.209 0.537-0.244 0.842l-0.001 0.012c-0.004 0.038-0.037 0.068-0.076 0.068 0 0 0 0-0 0l-13.549 0c-0.042-0-0.076-0.034-0.077-0.076v0-0.003c-0.049-1.064-0.634-1.82-1.407-2.218-0.378-0.195-0.801-0.304-1.229-0.322s-0.859 0.055-1.254 0.225c-0.811 0.349-1.471 1.108-1.627 2.327-0.005 0.038-0.037 0.067-0.075 0.067v0l-1.032 0c-0.042-0-0.076-0.034-0.076-0.076v0l0.002-0.016c0.071-0.497 0.124-0.909 0.17-1.264 0.148-1.157 0.22-1.719 0.522-2.097 0.286-0.358 0.759-0.529 1.681-0.86 0.374-0.135 0.825-0.297 1.377-0.513 0.046-0.575 0.22-1.276 0.531-1.871 0.261-0.499 0.618-0.924 1.075-1.143 0.228-0.109 0.472-0.18 0.741-0.227v-0.646c0-0.14 0.058-0.269 0.151-0.362l0.001-0.001c0.093-0.093 0.221-0.151 0.362-0.151h0c0.484 0 0.973 0.007 1.457 0h0.212c0.095 0 0.171 0.077 0.171 0.171v0 0.896l0.089-0c0 0 0 0 0 0 0.042 0 0.076 0.034 0.076 0.076v0l0 4.377h16.691v-3.252c0.245 0.188 0.556 0.302 0.894 0.302 0.001 0 0.001 0 0.002 0h-0c0 0 0.001 0 0.001 0 0.338 0 0.65-0.114 0.899-0.305l-0.003 0.003zM9.046 14.385h0.099c0.062-0.274 0.185-0.521 0.364-0.744 0.191-0.238 0.332-0.346 0.492-0.407 0.768-0.29 2.751-0.561 3.664-0.75 0.731-0.519 1.612-0.982 2.686-1.372 0.998-0.362 1.403-0.398 2.47-0.396 0.61 0.001 0.931 0.038 1.559 0.113 0.319 0.020 0.631 0.064 0.938 0.126 1.051 0.213 1.492 0.534 2.4 1.059 0.389 0.224 0.472 0.487 0.522 0.916l0.186 1.585h0.192v0.875c-0.026 0.294-0.142 0.339-0.388 0.339h-0.318c0.124-2.77-3.773-3.243-3.688 0.22h-6.564c0.502-2.387-1.906-3.216-3.088-1.851-0.36 0.415-0.484 0.984-0.452 1.654h-0.863c-0.066-0.030-0.121-0.075-0.162-0.131l-0.001-0.001c-0.141-0.193-0.11-0.772-0.1-1.107 0.002-0.090-0.026-0.126 0.052-0.126zM11.925 13.94c0.725 0 1.313 0.588 1.313 1.313s-0.588 1.313-1.313 1.313c-0.725 0-1.313-0.588-1.313-1.313s0.588-1.313 1.313-1.313zM12.079 14.626v0.473h0.473c-0.059-0.234-0.239-0.414-0.468-0.472l-0.004-0.001zM12.551 15.406h-0.473v0.473c0.233-0.059 0.414-0.239 0.472-0.468l0.001-0.004zM11.771 15.879v-0.473h-0.473c0.059 0.233 0.239 0.414 0.468 0.472l0.004 0.001zM11.298 15.098h0.473v-0.473c-0.234 0.059-0.414 0.239-0.472 0.468l-0.001 0.004zM22.071 13.94c0.725 0 1.313 0.588 1.313 1.313s-0.588 1.313-1.313 1.313c-0.725 0-1.313-0.588-1.313-1.313s0.588-1.313 1.313-1.313zM22.225 14.626v0.473h0.473c-0.059-0.234-0.239-0.414-0.468-0.472l-0.004-0.001zM22.698 15.406h-0.473v0.473c0.233-0.059 0.414-0.239 0.472-0.468l0.001-0.004zM21.917 15.879v-0.473h-0.473c0.059 0.233 0.239 0.414 0.468 0.472l0.004 0.001zM21.444 15.098h0.473v-0.473c-0.233 0.059-0.414 0.239-0.472 0.468l-0.001 0.004zM19.962 11.152l-0.933-0.015-0.339 1.677 2.948-0.132c0.333-0.014 0.392-0.161 0.19-0.441-0.101-0.141-0.203-0.265-0.313-0.382l0.002 0.002c-0.476-0.509-0.834-0.683-1.555-0.709zM15.316 12.436c-0.206-0.047-0.413-0.047-0.62-0.037 0.978-0.514 1.898-1.16 2.999-1.274 0.375-0.039 0.463-0.042 0.858-0.019l-0.262 1.732-2.825 0.117c0.028-0.083 0.045-0.127 0.050-0.209 0.015-0.233 0.012-0.261-0.2-0.309zM23.044 18.73c1.176 0 2.123 0.954 2.123 2.123 0 1.176-0.954 2.123-2.123 2.123-1.176 0-2.123-0.954-2.123-2.123 0-1.176 0.954-2.123 2.123-2.123zM23.044 20.037c0.451 0 0.816 0.366 0.816 0.817s-0.366 0.816-0.816 0.816-0.816-0.366-0.816-0.816c0-0.451 0.366-0.817 0.816-0.817zM8.054 11.739h-1.294c-0.145 0-0.266 0.12-0.266 0.266v0.272h1.559v-0.537zM7.307 13.715l-1.092 0.018c-0.265 0.268-0.466 0.581-0.618 0.906-0.175 0.376-0.284 0.771-0.346 1.136h2.056v-2.060zM4.018 19.848c0.451 0 0.816 0.366 0.816 0.817s-0.366 0.816-0.816 0.816c-0.451 0-0.816-0.366-0.816-0.816s0.366-0.817 0.816-0.817z"></path>
</symbol>
<symbol id="phone" viewBox="0 0 31 32">
<path d="M9.086 15.135c1.959 3.501 4.261 5.983 7.854 7.855 0.312-0.28 0.478-0.511 0.736-0.845 1.019-1.342 2.288-2.953 4.367-1.982 1.356 0.686 4.022 2.129 5.149 2.965 0.429 0.302 0.739 0.682 0.948 1.114 0.444 0.92 0.386 1.976 0.104 2.931-0.145 0.492-0.357 0.979-0.607 1.421-0.942 1.654-2.505 2.517-4.309 2.985-2.193 0.567-4.174 0.583-6.354-0.089-1.645-0.509-3.173-1.331-4.633-2.232l-0.188-0.116c-0.708-0.441-1.469-0.915-2.248-1.495l-0.006-0.005c-1.501-1.13-3.012-2.52-4.382-4.075-1.269-1.44-2.425-3.032-3.348-4.7-0.846-1.53-1.494-3.136-1.855-4.763-0.514-2.317-0.475-4.984 0.664-7.121 1.334-2.501 3.756-3.523 6.468-3.284l0.067 0.008c0.469 0.059 0.895 0.345 1.125 0.758l3.085 5.214c0.302 0.408 0.477 0.828 0.536 1.259 0.225 1.656-1.133 2.675-2.295 3.526-0.396 0.288-0.838 0.609-0.881 0.671zM14.896 11.87c-0.463-0.12-0.741-0.593-0.622-1.056s0.593-0.742 1.056-0.622c2.759 0.719 5.266 2.991 6.123 5.727 0.142 0.457-0.113 0.945-0.571 1.087s-0.945-0.113-1.087-0.571c-0.677-2.161-2.725-4-4.9-4.566zM15.011 6.555c-0.472-0.080-0.79-0.529-0.71-1.002s0.529-0.791 1.002-0.71c5.34 0.925 10.059 5.417 11.39 10.649 0.118 0.465-0.163 0.938-0.628 1.057s-0.939-0.163-1.057-0.629c-1.166-4.583-5.316-8.553-9.997-9.365zM15.569 1.731c-0.476-0.054-0.818-0.485-0.764-0.962s0.485-0.818 0.961-0.764c7.425 0.869 13.934 6.813 15.557 14.097 0.103 0.467-0.192 0.93-0.659 1.033s-0.93-0.192-1.032-0.659c-1.464-6.568-7.367-11.962-14.063-12.746zM7.48 15.953c-0.029-0.048-0.055-0.099-0.076-0.153-0.522-1.325 0.549-2.103 1.506-2.796 0.46-0.332 1.261-0.873 1.498-1.423 0.139-0.32 0.072-0.558-0.13-0.83l-0.081-0.116-3.045-5.148c-1.941-0.136-3.62 0.54-4.583 2.343-0.928 1.74-0.912 4.009-0.496 5.886 0.319 1.44 0.907 2.886 1.68 4.284 1.722 3.116 4.396 6.065 7.234 8.206 0.691 0.515 1.431 0.977 2.12 1.406l0.192 0.12c2.487 1.545 5.171 2.821 8.21 2.372 0.464-0.068 0.93-0.155 1.368-0.268 1.734-0.451 3.086-1.291 3.64-3.171 0.197-0.669 0.292-1.593-0.35-2.056-1.403-0.916-3.406-2.031-4.902-2.822-0.771-0.343-1.533 0.622-2.155 1.441-0.448 0.586-0.93 1.254-1.644 1.522-0.35 0.131-0.713 0.128-1.059-0.014l-0.116-0.049c-4.028-2.054-6.633-4.822-8.811-8.733z"></path>
</symbol>
<symbol id="envelope" viewBox="0 0 44 32">
<path d="M2.538 0h39.177c0.698 0 1.333 0.286 1.792 0.745s0.745 1.096 0.745 1.793v26.924c0 0.526-0.162 1.016-0.44 1.423-0.051 0.131-0.13 0.254-0.238 0.358-0.072 0.068-0.152 0.124-0.236 0.166-0.441 0.368-1.008 0.592-1.623 0.592h-39.177c-0.698 0-1.333-0.286-1.793-0.745-0.459-0.46-0.745-1.094-0.745-1.793v-26.924c0-0.699 0.285-1.334 0.745-1.793s1.094-0.745 1.793-0.745v0zM1.947 28.394l13.73-13.764-13.73-11.194v24.959zM17.189 15.862l-14.155 14.191h38.067l-13.527-14.189-4.46 3.8c-0.35 0.299-0.873 0.316-1.244 0.015l-4.681-3.817zM29.054 14.603l13.253 13.901v-25.191l-13.253 11.291zM3.193 1.947l19.275 15.716 18.447-15.716h-37.722z"></path>
</symbol>
</defs>
</svg>
