<!-- Generated by IcoMoon.io -->
<svg version="1.1" xmlns="http://www.w3.org/2000/svg" width="32" height="32" viewBox="0 0 32 32">
<title>car</title>
<path d="M6.594 6c-1.336 0-2.57 0.668-3.313 1.781l-2.781 4.156c-0.328 0.492-0.5 1.063-0.5 1.656v6.625c0 0.914 0.613 1.715 1.5 1.938l2.594 0.656c0.375 1.816 1.984 3.188 3.906 3.188 1.852 0 3.398-1.281 3.844-3h9.313c0.445 1.719 1.992 3 3.844 3s3.398-1.281 3.844-3h1.156c1.094 0 2-0.906 2-2v-3.656c0-1.832-1.254-3.434-3.031-3.875l-5.406-1.375-3.906-4.656c-0.762-0.91-1.875-1.438-3.063-1.438zM6.594 8h4.406v4h-8.125l2.063-3.094v-0.031c0.371-0.559 0.984-0.875 1.656-0.875zM13 8h3.594c0.594 0 1.152 0.262 1.531 0.719l2.75 3.281h-7.875zM2 14h20.875l5.625 1.406c0.895 0.223 1.5 1.016 1.5 1.938v3.656h-1.156c-0.445-1.719-1.992-3-3.844-3s-3.398 1.281-3.844 3h-9.313c-0.445-1.719-1.992-3-3.844-3-1.773 0-3.262 1.172-3.781 2.781l-2.219-0.563zM8 20c1.117 0 2 0.883 2 2s-0.883 2-2 2c-1.117 0-2-0.883-2-2s0.883-2 2-2zM25 20c1.117 0 2 0.883 2 2s-0.883 2-2 2c-1.117 0-2-0.883-2-2s0.883-2 2-2z"></path>
</svg>
