<!-- Generated by IcoMoon.io -->
<svg version="1.1" xmlns="http://www.w3.org/2000/svg" width="44" height="32" viewBox="0 0 44 32">
<title>envelope</title>
<path d="M2.538 0h39.177c0.698 0 1.333 0.286 1.792 0.745s0.745 1.096 0.745 1.793v26.924c0 0.526-0.162 1.016-0.44 1.423-0.051 0.131-0.13 0.254-0.238 0.358-0.072 0.068-0.152 0.124-0.236 0.166-0.441 0.368-1.008 0.592-1.623 0.592h-39.177c-0.698 0-1.333-0.286-1.793-0.745-0.459-0.46-0.745-1.094-0.745-1.793v-26.924c0-0.699 0.285-1.334 0.745-1.793s1.094-0.745 1.793-0.745v0zM1.947 28.394l13.73-13.764-13.73-11.194v24.959zM17.189 15.862l-14.155 14.191h38.067l-13.527-14.189-4.46 3.8c-0.35 0.299-0.873 0.316-1.244 0.015l-4.681-3.817zM29.054 14.603l13.253 13.901v-25.191l-13.253 11.291zM3.193 1.947l19.275 15.716 18.447-15.716h-37.722z"></path>
</svg>
