<!-- Generated by IcoMoon.io -->
<svg version="1.1" xmlns="http://www.w3.org/2000/svg" width="31" height="32" viewBox="0 0 31 32">
<title>phone</title>
<path d="M9.086 15.135c1.959 3.501 4.261 5.983 7.854 7.855 0.312-0.28 0.478-0.511 0.736-0.845 1.019-1.342 2.288-2.953 4.367-1.982 1.356 0.686 4.022 2.129 5.149 2.965 0.429 0.302 0.739 0.682 0.948 1.114 0.444 0.92 0.386 1.976 0.104 2.931-0.145 0.492-0.357 0.979-0.607 1.421-0.942 1.654-2.505 2.517-4.309 2.985-2.193 0.567-4.174 0.583-6.354-0.089-1.645-0.509-3.173-1.331-4.633-2.232l-0.188-0.116c-0.708-0.441-1.469-0.915-2.248-1.495l-0.006-0.005c-1.501-1.13-3.012-2.52-4.382-4.075-1.269-1.44-2.425-3.032-3.348-4.7-0.846-1.53-1.494-3.136-1.855-4.763-0.514-2.317-0.475-4.984 0.664-7.121 1.334-2.501 3.756-3.523 6.468-3.284l0.067 0.008c0.469 0.059 0.895 0.345 1.125 0.758l3.085 5.214c0.302 0.408 0.477 0.828 0.536 1.259 0.225 1.656-1.133 2.675-2.295 3.526-0.396 0.288-0.838 0.609-0.881 0.671zM14.896 11.87c-0.463-0.12-0.741-0.593-0.622-1.056s0.593-0.742 1.056-0.622c2.759 0.719 5.266 2.991 6.123 5.727 0.142 0.457-0.113 0.945-0.571 1.087s-0.945-0.113-1.087-0.571c-0.677-2.161-2.725-4-4.9-4.566zM15.011 6.555c-0.472-0.080-0.79-0.529-0.71-1.002s0.529-0.791 1.002-0.71c5.34 0.925 10.059 5.417 11.39 10.649 0.118 0.465-0.163 0.938-0.628 1.057s-0.939-0.163-1.057-0.629c-1.166-4.583-5.316-8.553-9.997-9.365zM15.569 1.731c-0.476-0.054-0.818-0.485-0.764-0.962s0.485-0.818 0.961-0.764c7.425 0.869 13.934 6.813 15.557 14.097 0.103 0.467-0.192 0.93-0.659 1.033s-0.93-0.192-1.032-0.659c-1.464-6.568-7.367-11.962-14.063-12.746zM7.48 15.953c-0.029-0.048-0.055-0.099-0.076-0.153-0.522-1.325 0.549-2.103 1.506-2.796 0.46-0.332 1.261-0.873 1.498-1.423 0.139-0.32 0.072-0.558-0.13-0.83l-0.081-0.116-3.045-5.148c-1.941-0.136-3.62 0.54-4.583 2.343-0.928 1.74-0.912 4.009-0.496 5.886 0.319 1.44 0.907 2.886 1.68 4.284 1.722 3.116 4.396 6.065 7.234 8.206 0.691 0.515 1.431 0.977 2.12 1.406l0.192 0.12c2.487 1.545 5.171 2.821 8.21 2.372 0.464-0.068 0.93-0.155 1.368-0.268 1.734-0.451 3.086-1.291 3.64-3.171 0.197-0.669 0.292-1.593-0.35-2.056-1.403-0.916-3.406-2.031-4.902-2.822-0.771-0.343-1.533 0.622-2.155 1.441-0.448 0.586-0.93 1.254-1.644 1.522-0.35 0.131-0.713 0.128-1.059-0.014l-0.116-0.049c-4.028-2.054-6.633-4.822-8.811-8.733z"></path>
</svg>
