<!-- Generated by IcoMoon.io -->
<svg version="1.1" xmlns="http://www.w3.org/2000/svg" width="32" height="32" viewBox="0 0 32 32">
<title>quote1</title>
<path d="M12 15h-5.89c0.396-2.572 1.833-4.748 3.858-6.12l0.032-0.020 1.79-1.2-1.1-1.66-1.79 1.2c-2.97 2-4.899 5.35-4.9 9.15v6.65c0 1.105 0.895 2 2 2v0h6c1.105 0 2-0.895 2-2v0-6c0-1.105-0.895-2-2-2v0z"></path>
<path d="M26 15h-5.89c0.396-2.572 1.833-4.748 3.858-6.12l0.032-0.020 1.79-1.2-1.090-1.66-1.8 1.2c-2.97 2-4.899 5.35-4.9 9.15v6.65c0 1.105 0.895 2 2 2v0h6c1.105 0 2-0.895 2-2v0-6c0-1.105-0.895-2-2-2v0z"></path>
</svg>
